<?xml version="1.0" encoding="UTF-8"?>
<!DOCTYPE svg PUBLIC "-//W3C//DTD SVG 1.1//EN" "http://www.w3.org/Graphics/SVG/1.1/DTD/svg11.dtd">
<svg xmlns="http://www.w3.org/2000/svg" version="1.1" width="181px" height="172px" style="shape-rendering:geometricPrecision; text-rendering:geometricPrecision; image-rendering:optimizeQuality; fill-rule:evenodd; clip-rule:evenodd" xmlns:xlink="http://www.w3.org/1999/xlink">
<g><path style="opacity:0.496" fill="#2d2d2d" d="M 96.5,-0.5 C 99.5,-0.5 102.5,-0.5 105.5,-0.5C 106.919,0.451145 108.585,0.784479 110.5,0.5C 104.69,1.48955 98.69,1.82289 92.5,1.5C 91.8333,1.5 91.5,1.16667 91.5,0.5C 93.4147,0.784479 95.0813,0.451145 96.5,-0.5 Z"/></g>
<g><path style="opacity:0.682" fill="#282828" d="M 91.5,0.5 C 91.5,1.16667 91.8333,1.5 92.5,1.5C 98.5168,2.39572 103.85,3.72905 108.5,5.5C 101.773,4.93443 95.1061,3.93443 88.5,2.5C 89.0047,1.08149 90.0047,0.414828 91.5,0.5 Z"/></g>
<g><path style="opacity:0.999" fill="#020202" d="M 110.5,0.5 C 111.791,0.262695 112.791,0.596028 113.5,1.5C 129.473,5.29447 144.307,13.6278 158,26.5C 183.518,58.2504 186.184,91.917 166,127.5C 151.913,146.904 133.08,159.07 109.5,164C 110.448,164.483 111.448,164.649 112.5,164.5C 111.432,165.434 110.099,165.768 108.5,165.5C 59.2422,166.362 28.9089,144.696 17.5,100.5C 16.5655,99.4324 16.2322,98.099 16.5,96.5C 17.3213,93.3586 17.8213,90.0252 18,86.5C 30.2007,128.339 58.034,149.506 101.5,150C 105.426,149.94 108.426,149.106 110.5,147.5C 110.842,146.662 111.508,146.328 112.5,146.5C 112.917,147.124 113.584,147.457 114.5,147.5C 116.646,147.366 117.646,146.699 117.5,145.5C 117.842,144.662 118.508,144.328 119.5,144.5C 120.251,145.573 121.251,145.74 122.5,145C 145.705,134.753 160.038,117.253 165.5,92.5C 166.87,87.7343 167.537,82.7343 167.5,77.5C 167.69,72.6435 167.024,68.6435 165.5,65.5C 164.662,65.1583 164.328,64.4916 164.5,63.5C 165.124,63.0831 165.457,62.4164 165.5,61.5C 158.066,32.8995 140.233,14.2328 112,5.5C 111.235,5.56993 110.735,5.90326 110.5,6.5C 109.508,6.67158 108.842,6.33825 108.5,5.5C 103.85,3.72905 98.5168,2.39572 92.5,1.5C 98.69,1.82289 104.69,1.48955 110.5,0.5 Z"/></g>
<g><path style="opacity:0.999" fill="#010101" d="M 14.5,100.5 C 15.404,101.209 15.7373,102.209 15.5,103.5C 16.0712,116.685 20.5712,128.685 29,139.5C 43.8484,156.842 62.6817,166.675 85.5,169C 52.566,170.285 27.7326,156.785 11,128.5C 6.80168,119.905 3.80168,110.905 2,101.5C 1.53566,102.094 1.36899,102.761 1.5,103.5C 0.596028,102.791 0.262695,101.791 0.5,100.5C -0.564181,58.3923 17.4358,28.3923 54.5,10.5C 54.8417,9.66175 55.5084,9.32842 56.5,9.5C 56.7352,10.0967 57.2352,10.4301 58,10.5C 62.0468,8.94651 66.2135,7.94651 70.5,7.5C 110.007,2.15829 138.841,17.1583 157,52.5C 161.55,62.0306 163.217,72.0306 162,82.5C 149.452,41.9732 121.952,21.4732 79.5,21C 46.4055,25.4267 24.9055,43.5933 15,75.5C 14.0259,80.9531 13.5259,86.4531 13.5,92C 13.3744,96.2639 13.7077,99.0973 14.5,100.5 Z"/></g>
<g><path style="opacity:0.467" fill="#2b2b2b" d="M 67.5,6.5 C 68.791,6.26269 69.791,6.59603 70.5,7.5C 66.2135,7.94651 62.0468,8.94651 58,10.5C 57.2352,10.4301 56.7352,10.0967 56.5,9.5C 59.9861,7.89437 63.6528,6.89437 67.5,6.5 Z"/></g>
<g><path style="opacity:0.235" fill="#282828" d="M 14.5,100.5 C 13.7077,99.0973 13.3744,96.2639 13.5,92C 13.5259,86.4531 14.0259,80.9531 15,75.5C 24.9055,43.5933 46.4055,25.4267 79.5,21C 121.952,21.4732 149.452,41.9732 162,82.5C 163.217,72.0306 161.55,62.0306 157,52.5C 138.841,17.1583 110.007,2.15829 70.5,7.5C 69.791,6.59603 68.791,6.26269 67.5,6.5C 100.263,0.586894 127.43,10.2536 149,35.5C 160.074,50.7219 165.074,67.7219 164,86.5C 163.333,87.8333 162.667,87.8333 162,86.5C 152.817,51.6709 130.65,30.5043 95.5,23C 67.6525,20.0542 45.1525,29.5542 28,51.5C 18.0558,66.2709 13.5558,82.6043 14.5,100.5 Z"/></g>
<g><path style="opacity:0.294" fill="#292929" d="M 110.5,6.5 C 110.735,5.90326 111.235,5.56993 112,5.5C 140.233,14.2328 158.066,32.8995 165.5,61.5C 165.457,62.4164 165.124,63.0831 164.5,63.5C 157.476,34.1416 139.476,15.1416 110.5,6.5 Z"/></g>
<g><path style="opacity:0.478" fill="#272727" d="M 54.5,10.5 C 17.4358,28.3923 -0.564181,58.3923 0.5,100.5C 0.737305,99.209 0.403972,98.209 -0.5,97.5C -0.5,92.5 -0.5,87.5 -0.5,82.5C 3.45746,47.5398 21.7908,23.5398 54.5,10.5 Z"/></g>
<g><path style="opacity:0.18" fill="#282828" d="M 113.5,1.5 C 150.191,9.52477 172.525,31.8581 180.5,68.5C 180.5,77.1667 180.5,85.8333 180.5,94.5C 174.197,126.993 155.53,149.493 124.5,162C 120.553,163.154 116.553,163.987 112.5,164.5C 111.448,164.649 110.448,164.483 109.5,164C 133.08,159.07 151.913,146.904 166,127.5C 186.184,91.917 183.518,58.2504 158,26.5C 144.307,13.6278 129.473,5.29447 113.5,1.5 Z"/></g>
<g><path style="opacity:0.865" fill="#222222" d="M 165.5,92.5 C 165.5,91.8333 165.167,91.5 164.5,91.5C 166.306,82.7892 166.64,74.1226 165.5,65.5C 167.024,68.6435 167.69,72.6435 167.5,77.5C 167.537,82.7343 166.87,87.7343 165.5,92.5 Z"/></g>
<g><path style="opacity:0.29" fill="#272727" d="M 110.5,147.5 C 108.426,149.106 105.426,149.94 101.5,150C 58.034,149.506 30.2007,128.339 18,86.5C 17.8213,90.0252 17.3213,93.3586 16.5,96.5C 16.5,92.5 16.5,88.5 16.5,84.5C 17.675,84.281 18.675,84.6143 19.5,85.5C 26.9081,116.075 45.5747,136.242 75.5,146C 81.4618,147.088 87.4618,147.922 93.5,148.5C 99.0054,148.119 104.672,147.785 110.5,147.5 Z"/></g>
<g><path style="opacity:0.467" fill="#292929" d="M 164.5,91.5 C 165.167,91.5 165.5,91.8333 165.5,92.5C 160.038,117.253 145.705,134.753 122.5,145C 121.251,145.74 120.251,145.573 119.5,144.5C 143.519,134.482 158.519,116.815 164.5,91.5 Z"/></g>
<g><path style="opacity:0.49" fill="#303030" d="M 117.5,145.5 C 117.646,146.699 116.646,147.366 114.5,147.5C 113.584,147.457 112.917,147.124 112.5,146.5C 114.117,145.962 115.784,145.629 117.5,145.5 Z"/></g>
<g><path style="opacity:0.812" fill="#272727" d="M 108.5,165.5 C 73.9744,169.487 46.8078,157.154 27,128.5C 21.8154,119.809 18.6487,110.476 17.5,100.5C 28.9089,144.696 59.2422,166.362 108.5,165.5 Z"/></g>
<g><path style="opacity:0.275" fill="#282828" d="M 15.5,103.5 C 24.5948,143.916 49.9281,165.249 91.5,167.5C 91.5,168.5 91.5,169.5 91.5,170.5C 88.6146,170.194 85.9479,170.527 83.5,171.5C 82.5,171.5 81.5,171.5 80.5,171.5C 46.2272,169.608 21.3939,153.275 6,122.5C 3.77254,116.322 2.27254,109.989 1.5,103.5C 1.36899,102.761 1.53566,102.094 2,101.5C 3.80168,110.905 6.80168,119.905 11,128.5C 27.7326,156.785 52.566,170.285 85.5,169C 62.6817,166.675 43.8484,156.842 29,139.5C 20.5712,128.685 16.0712,116.685 15.5,103.5 Z"/></g>
</svg>
